<svg width="457" height="200" viewBox="0 0 457 200" fill="none" xmlns="http://www.w3.org/2000/svg">
<path d="M42.3701 78.27C47.9047 78.2209 53.3896 79.3172 58.4801 81.49C63.3835 83.5887 67.8504 86.587 71.6501 90.33C75.4507 94.0626 78.4843 98.5026 80.5801 103.4C82.7561 108.493 83.8557 113.981 83.8101 119.52V161H67.4201V119.52C67.4418 116.198 66.7815 112.907 65.4801 109.85C64.2257 106.891 62.4126 104.202 60.1401 101.93C55.4129 97.2484 49.0232 94.6307 42.3701 94.65C39.048 94.6283 35.7568 95.2886 32.7001 96.59C26.727 99.1221 21.9722 103.877 19.4401 109.85C18.1419 112.907 17.485 116.199 17.5101 119.52V161H1.12012V45.12H21.2401V84.4C23.6683 82.7858 26.28 81.4666 29.0201 80.47C33.3149 78.9918 37.8281 78.248 42.3701 78.27Z" fill="#E63946"/>
<path d="M129.84 83.38C135.391 83.3315 140.892 84.4276 146 86.6C155.855 90.811 163.704 98.6634 167.91 108.52C170.083 113.61 171.179 119.095 171.13 124.63V166.07H129.84C124.342 166.095 118.898 164.996 113.84 162.84C103.839 158.611 95.8788 150.651 91.6501 140.65C89.5243 135.561 88.4297 130.1 88.4297 124.585C88.4297 119.07 89.5243 113.609 91.6501 108.52C93.752 103.623 96.7848 99.1808 100.58 95.44C104.406 91.6875 108.905 88.6886 113.84 86.6C118.9 84.452 124.344 83.3564 129.84 83.38ZM154.7 149.68V124.63C154.724 121.309 154.067 118.018 152.77 114.96C150.238 108.987 145.483 104.232 139.51 101.7C136.453 100.402 133.162 99.7448 129.84 99.77C123.193 99.7297 116.801 102.33 112.07 107C109.803 109.276 107.99 111.964 106.73 114.92C105.433 117.978 104.776 121.269 104.8 124.59C104.785 127.884 105.42 131.149 106.667 134.198C107.915 137.247 109.751 140.021 112.07 142.36C114.36 144.649 117.078 146.464 120.07 147.7C123.161 148.994 126.48 149.654 129.83 149.64L154.7 149.68Z" fill="#E63946"/>
<path d="M192.46 50.23V166.07H176.07V50.23H192.46Z" fill="#E63946"/>
<path d="M281.4 83.38V124.63C281.423 130.127 280.328 135.57 278.18 140.63C273.95 150.599 266.032 158.549 256.08 162.82C248.503 166.038 240.134 166.907 232.058 165.315C223.981 163.723 216.569 159.743 210.78 153.89C207.016 150.073 204.016 145.572 201.94 140.63C199.784 135.573 198.685 130.128 198.71 124.63V83.38H215.1V124.63C215.084 127.981 215.744 131.3 217.04 134.39C218.276 137.382 220.091 140.101 222.38 142.39C224.65 144.665 227.34 146.478 230.3 147.73C233.356 149.033 236.648 149.693 239.97 149.67C243.261 149.683 246.522 149.044 249.564 147.789C252.607 146.534 255.37 144.689 257.695 142.36C260.02 140.03 261.86 137.263 263.108 134.218C264.357 131.173 264.99 127.911 264.97 124.62V83.38H281.4Z" fill="#E63946"/>
<path d="M327.44 83.38C332.974 83.3358 338.458 84.4319 343.55 86.6C353.41 90.8031 361.261 98.6581 365.46 108.52C367.636 113.61 368.736 119.095 368.69 124.63V157.78C368.736 163.315 367.636 168.8 365.46 173.89C363.363 178.792 360.368 183.258 356.63 187.06C352.89 190.859 348.448 193.895 343.55 196C338.459 198.173 332.975 199.269 327.44 199.22H319.15V182.82H327.44C332.702 182.904 337.846 181.256 342.08 178.13C346.218 175.118 349.331 170.908 351 166.07H327.44C321.942 166.093 316.498 164.994 311.44 162.84C301.444 158.603 293.487 150.646 289.25 140.65C287.124 135.561 286.03 130.1 286.03 124.585C286.03 119.07 287.124 113.609 289.25 108.52C291.351 103.62 294.388 99.1773 298.19 95.44C302.011 91.6856 306.506 88.6864 311.44 86.6C316.5 84.4545 321.944 83.359 327.44 83.38ZM302.39 124.63C302.376 127.98 303.032 131.298 304.32 134.39C305.558 137.386 307.375 140.107 309.668 142.398C311.96 144.689 314.683 146.505 317.68 147.74C320.77 149.037 324.089 149.697 327.44 149.68H352.44V124.63C352.464 121.309 351.807 118.018 350.51 114.96C349.25 112.004 347.437 109.316 345.17 107.04C342.26 104.143 338.684 102.002 334.755 100.807C330.826 99.6116 326.664 99.3972 322.633 100.183C318.602 100.968 314.825 102.729 311.633 105.313C308.44 107.896 305.929 111.222 304.32 115C303.033 118.047 302.376 121.323 302.39 124.63Z" fill="#E63946"/>
<path d="M415.09 83.38C420.627 83.337 426.114 84.433 431.21 86.6C441.065 90.811 448.914 98.6634 453.12 108.52C455.293 113.61 456.389 119.095 456.34 124.63V166.07H415.09C409.592 166.095 404.148 164.996 399.09 162.84C389.089 158.611 381.129 150.651 376.9 140.65C374.774 135.561 373.68 130.1 373.68 124.585C373.68 119.07 374.774 113.609 376.9 108.52C379.002 103.623 382.035 99.1808 385.83 95.44C389.656 91.6875 394.155 88.6886 399.09 86.6C404.15 84.452 409.594 83.3565 415.09 83.38ZM440 149.68V124.63C439.997 121.317 439.316 118.04 438 115C435.468 109.027 430.713 104.272 424.74 101.74C421.683 100.442 418.392 99.7848 415.07 99.81C408.435 99.7644 402.053 102.35 397.32 107C395.051 109.302 393.245 112.018 392 115C390.703 118.058 390.046 121.349 390.07 124.67C390.055 127.964 390.69 131.229 391.937 134.278C393.185 137.327 395.021 140.101 397.34 142.44C399.63 144.729 402.348 146.544 405.34 147.78C408.431 149.074 411.75 149.734 415.1 149.72L440 149.68Z" fill="#E63946"/>
<path d="M43 133C45.3737 133 47.6502 133.943 49.3286 135.621C51.0071 137.3 51.95 139.576 51.95 141.95V161.14H34V142C34 139.613 34.9482 137.324 36.636 135.636C38.3239 133.948 40.6131 133 43 133Z" fill="#E63946"/>
<path d="M11 40.92C16.6499 40.92 21.23 36.3399 21.23 30.69C21.23 25.0401 16.6499 20.46 11 20.46C5.35015 20.46 0.77002 25.0401 0.77002 30.69C0.77002 36.3399 5.35015 40.92 11 40.92Z" fill="#E63946"/>
<path d="M23.7901 33.25C29.4399 33.25 34.0201 28.6699 34.0201 23.02C34.0201 17.3701 29.4399 12.79 23.7901 12.79C18.1402 12.79 13.5601 17.3701 13.5601 23.02C13.5601 28.6699 18.1402 33.25 23.7901 33.25Z" fill="#E63946"/>
<path d="M13.5601 25.58C19.2099 25.58 23.7901 20.9999 23.7901 15.35C23.7901 9.70013 19.2099 5.12 13.5601 5.12C7.9102 5.12 3.33008 9.70013 3.33008 15.35C3.33008 20.9999 7.9102 25.58 13.5601 25.58Z" fill="#E63946"/>
<path d="M23.7901 20.46C29.4399 20.46 34.0201 15.8799 34.0201 10.23C34.0201 4.58012 29.4399 0 23.7901 0C18.1402 0 13.5601 4.58012 13.5601 10.23C13.5601 15.8799 18.1402 20.46 23.7901 20.46Z" fill="#E63946"/>
</svg>
