<svg width="260" height="514" viewBox="0 0 260 514" fill="none" xmlns="http://www.w3.org/2000/svg">
<path d="M129.48 253.79C146.857 253.646 164.076 257.091 180.06 263.91C195.444 270.502 209.461 279.91 221.39 291.65C233.294 303.371 242.804 317.297 249.39 332.65C256.222 348.645 259.678 365.878 259.54 383.27V513.33H208.1V383.27C208.171 372.847 206.101 362.521 202.02 352.93C198.083 343.643 192.392 335.203 185.26 328.07C170.427 313.369 150.364 305.158 129.48 305.24C119.054 305.165 108.725 307.231 99.13 311.31C80.3951 319.267 65.4831 334.189 57.54 352.93C53.4617 362.521 51.3957 372.848 51.47 383.27V513.33H0V149.75H63.14V273.06C70.7534 267.993 78.9447 263.854 87.54 260.73C101.028 256.068 115.209 253.721 129.48 253.79Z" fill="#E63946"/>
<path d="M131.39 425.6C138.84 425.6 145.985 428.559 151.253 433.827C156.521 439.095 159.48 446.24 159.48 453.69V513.86H103.28V453.7C103.28 450.009 104.007 446.354 105.42 442.944C106.833 439.534 108.904 436.436 111.514 433.827C114.125 431.217 117.223 429.148 120.634 427.736C124.044 426.325 127.699 425.599 131.39 425.6Z" fill="#E63946"/>
<path d="M32.65 136.57C50.3839 136.57 64.76 122.194 64.76 104.46C64.76 86.7261 50.3839 72.35 32.65 72.35C14.9162 72.35 0.540039 86.7261 0.540039 104.46C0.540039 122.194 14.9162 136.57 32.65 136.57Z" fill="#E63946"/>
<path d="M80.9098 109.24C98.6437 109.24 113.02 94.8639 113.02 77.13C113.02 59.3962 98.6437 45.02 80.9098 45.02C63.1759 45.02 48.7998 59.3962 48.7998 77.13C48.7998 94.8639 63.1759 109.24 80.9098 109.24Z" fill="#E63946"/>
<path d="M45.9901 93.2599C65.7896 93.2599 81.8401 77.2094 81.8401 57.4099C81.8401 37.6105 65.7896 21.5599 45.9901 21.5599C26.1907 21.5599 10.1401 37.6105 10.1401 57.4099C10.1401 77.2094 26.1907 93.2599 45.9901 93.2599Z" fill="#E63946"/>
<path d="M99.9701 71.7C119.77 71.7 135.82 55.6494 135.82 35.85C135.82 16.0506 119.77 0 99.9701 0C80.1707 0 64.1201 16.0506 64.1201 35.85C64.1201 55.6494 80.1707 71.7 99.9701 71.7Z" fill="#E63946"/>
</svg>
